Facade-Regular.ufo
<glyph name="plus" format="2">
  <advance width="750"/>
  <unicode hex="002B"/>
  <outline>
    <contour>
      <point x="327" y="135" type="line"/>
      <point x="423" y="135" type="line"/>
      <point x="423" y="765" type="line"/>
      <point x="327" y="765" type="line"/>
    </contour>
    <contour>
      <point x="60" y="405" type="line"/>
      <point x="690" y="405" type="line"/>
      <point x="690" y="495" type="line"/>
      <point x="60" y="495" type="line"/>
    </contour>
  </outline>
</glyph>
<glyph name="slash" format="2">
  <advance width="480"/>
  <unicode hex="002F"/>
  <outline>
    <contour>
      <point x="-84" y="-180" type="line"/>
      <point x="18" y="-180" type="line"/>
      <point x="564" y="960" type="line"/>
      <point x="462" y="960" type="line"/>
    </contour>
  </outline>
</glyph>
<glyph name="three" format="2">
  <advance width="750"/>
  <unicode hex="0033"/>
  <outline>
    <contour>
      <point x="342" y="-12" type="curve" smooth="yes"/>
      <point x="514" y="-12"/>
      <point x="654" y="122"/>
      <point x="654" y="294" type="curve" smooth="yes"/>
      <point x="654" y="443"/>
      <point x="547" y="558"/>
      <point x="413" y="585" type="curve"/>
      <point x="582" y="900" type="line"/>
      <point x="138" y="900" type="line"/>
      <point x="138" y="804" type="line"/>
      <point x="464" y="804" type="line"/>
      <point x="437" y="844" type="line"/>
      <point x="245" y="473" type="line"/>
      <point x="272" y="488"/>
      <point x="305" y="498"/>
      <point x="342" y="498" type="curve" smooth="yes"/>
      <point x="455" y="498"/>
      <point x="546" y="406"/>
      <point x="546" y="294" type="curve" smooth="yes"/>
      <point x="546" y="181"/>
      <point x="456" y="90"/>
      <point x="342" y="90" type="curve" smooth="yes"/>
      <point x="238" y="90"/>
      <point x="152" y="166"/>
      <point x="138" y="269" type="curve"/>
      <point x="72" y="138" type="line"/>
      <point x="127" y="45"/>
      <point x="227" y="-12"/>
    </contour>
  </outline>
</glyph>
<glyph name="at" format="2">
  <advance width="1260"/>
  <unicode hex="0040"/>
  <outline>
    <contour>
      <point x="651" y="-192" type="curve" smooth="yes"/>
      <point x="775" y="-192"/>
      <point x="890" y="-154"/>
      <point x="984" y="-86" type="curve"/>
      <point x="958" y="14" type="line"/>
      <point x="873" y="-62"/>
      <point x="768" y="-102"/>
      <point x="649" y="-102" type="curve" smooth="yes"/>
      <point x="381" y="-102"/>
      <point x="174" y="99"/>
      <point x="174" y="357" type="curve" smooth="yes"/>
      <point x="174" y="615"/>
      <point x="381" y="822"/>
      <point x="652" y="822" type="curve" smooth="yes"/>
      <point x="905" y="822"/>
      <point x="1098" y="641"/>
      <point x="1098" y="395" type="curve" smooth="yes"/>
      <point x="1098" y="244"/>
      <point x="1041" y="160"/>
      <point x="971" y="160" type="curve" smooth="yes"/>
      <point x="928" y="160"/>
      <point x="889" y="189"/>
      <point x="889" y="248" type="curve" smooth="yes"/>
      <point x="889" y="630" type="line"/>
      <point x="798" y="630" type="line"/>
      <point x="798" y="508" type="line"/>
      <point x="821" y="534" type="line"/>
      <point x="772" y="598"/>
      <point x="696" y="638"/>
      <point x="609" y="638" type="curve" smooth="yes"/>
      <point x="460" y="638"/>
      <point x="340" y="513"/>
      <point x="340" y="360" type="curve" smooth="yes"/>
      <point x="340" y="207"/>
      <point x="460" y="82"/>
      <point x="609" y="82" type="curve" smooth="yes"/>
      <point x="704" y="82"/>
      <point x="787" y="132"/>
      <point x="835" y="205" type="curve"/>
      <point x="809" y="211" type="line"/>
      <point x="818" y="136"/>
      <point x="886" y="82"/>
      <point x="966" y="82" type="curve" smooth="yes"/>
      <point x="1072" y="82"/>
      <point x="1194" y="187"/>
      <point x="1194" y="401" type="curve" smooth="yes"/>
      <point x="1194" y="690"/>
      <point x="954" y="912"/>
      <point x="651" y="912" type="curve" smooth="yes"/>
      <point x="332" y="912"/>
      <point x="78" y="664"/>
      <point x="78" y="354" type="curve" smooth="yes"/>
      <point x="78" y="50"/>
      <point x="332" y="-192"/>
    </contour>
    <contour>
      <point x="621" y="172" type="curve" smooth="yes"/>
      <point x="519" y="172"/>
      <point x="438" y="256"/>
      <point x="438" y="360" type="curve" smooth="yes"/>
      <point x="438" y="464"/>
      <point x="519" y="548"/>
      <point x="621" y="548" type="curve" smooth="yes"/>
      <point x="723" y="548"/>
      <point x="804" y="464"/>
      <point x="804" y="360" type="curve" smooth="yes"/>
      <point x="804" y="256"/>
      <point x="723" y="172"/>
    </contour>
  </outline>
</glyph>
<glyph name="P" format="2">
  <advance width="720"/>
  <unicode hex="0050"/>
  <outline>
    <contour>
      <point x="179" y="316" type="line"/>
      <point x="349" y="316" type="line" smooth="yes"/>
      <point x="587" y="316"/>
      <point x="672" y="480"/>
      <point x="672" y="608" type="curve" smooth="yes"/>
      <point x="672" y="738"/>
      <point x="586" y="900"/>
      <point x="349" y="900" type="curve" smooth="yes"/>
      <point x="179" y="900" type="line"/>
      <point x="179" y="798" type="line"/>
      <point x="343" y="798" type="line" smooth="yes"/>
      <point x="508" y="798"/>
      <point x="558" y="696"/>
      <point x="558" y="608" type="curve" smooth="yes"/>
      <point x="558" y="516"/>
      <point x="504" y="418"/>
      <point x="343" y="418" type="curve" smooth="yes"/>
      <point x="179" y="418" type="line"/>
    </contour>
    <contour>
      <point x="126" y="0" type="line"/>
      <point x="240" y="0" type="line"/>
      <point x="240" y="900" type="line"/>
      <point x="126" y="900" type="line"/>
    </contour>
  </outline>
</glyph>
<glyph name="Q" format="2">
  <advance width="1060"/>
  <unicode hex="0051"/>
  <outline>
    <contour>
      <point x="530" y="-18" type="curve" smooth="yes"/>
      <point x="790" y="-18"/>
      <point x="1000" y="191"/>
      <point x="1000" y="450" type="curve" smooth="yes"/>
      <point x="1000" y="709"/>
      <point x="790" y="918"/>
      <point x="530" y="918" type="curve" smooth="yes"/>
      <point x="270" y="918"/>
      <point x="60" y="709"/>
      <point x="60" y="450" type="curve" smooth="yes"/>
      <point x="60" y="191"/>
      <point x="270" y="-18"/>
    </contour>
    <contour>
      <point x="530" y="90" type="curve" smooth="yes"/>
      <point x="332" y="90"/>
      <point x="178" y="251"/>
      <point x="178" y="450" type="curve" smooth="yes"/>
      <point x="178" y="649"/>
      <point x="332" y="810"/>
      <point x="530" y="810" type="curve" smooth="yes"/>
      <point x="728" y="810"/>
      <point x="882" y="649"/>
      <point x="882" y="450" type="curve" smooth="yes"/>
      <point x="882" y="251"/>
      <point x="728" y="90"/>
    </contour>
    <contour>
      <point x="863" y="-30" type="line"/>
      <point x="993" y="-30" type="line"/>
      <point x="594" y="450" type="line"/>
      <point x="460" y="450" type="line"/>
      <point x="742" y="111" type="line"/>
      <point x="751" y="105" type="line"/>
    </contour>
  </outline>
</glyph>
<glyph name="S" format="2">
  <advance width="660"/>
  <unicode hex="0053"/>
  <anchor x="322" y="0" name="bottom"/>
  <anchor x="343" y="900" name="top"/>
  <outline>
    <contour>
      <point x="320" y="-12" type="curve" smooth="yes"/>
      <point x="481" y="-12"/>
      <point x="600" y="99"/>
      <point x="600" y="253" type="curve" smooth="yes"/>
      <point x="600" y="412"/>
      <point x="473" y="476"/>
      <point x="419" y="503" type="curve" smooth="yes"/>
      <point x="307" y="559" type="line" smooth="yes"/>
      <point x="277" y="574"/>
      <point x="208" y="609"/>
      <point x="208" y="689" type="curve" smooth="yes"/>
      <point x="208" y="758"/>
      <point x="260" y="812"/>
      <point x="340" y="812" type="curve" smooth="yes"/>
      <point x="422" y="812"/>
      <point x="492" y="752"/>
      <point x="525" y="696" type="curve"/>
      <point x="558" y="834" type="line"/>
      <point x="517" y="870"/>
      <point x="441" y="912"/>
      <point x="345" y="912" type="curve" smooth="yes"/>
      <point x="198" y="912"/>
      <point x="96" y="814"/>
      <point x="96" y="678" type="curve" smooth="yes"/>
      <point x="96" y="538"/>
      <point x="204" y="483"/>
      <point x="257" y="456" type="curve" smooth="yes"/>
      <point x="367" y="400" type="line" smooth="yes"/>
      <point x="401" y="383"/>
      <point x="488" y="341"/>
      <point x="488" y="246" type="curve" smooth="yes"/>
      <point x="488" y="158"/>
      <point x="419" y="90"/>
      <point x="324" y="90" type="curve" smooth="yes"/>
      <point x="220" y="90"/>
      <point x="143" y="161"/>
      <point x="106" y="236" type="curve"/>
      <point x="73" y="98" type="line"/>
      <point x="124" y="37"/>
      <point x="213" y="-12"/>
    </contour>
  </outline>
</glyph>
<glyph name="f" format="2">
  <advance width="450"/>
  <unicode hex="0066"/>
  <anchor x="220" y="0" name="bottom"/>
  <anchor x="364" y="960" name="top"/>
  <outline>
    <contour>
      <point x="166" y="0" type="line"/>
      <point x="274" y="0" type="line"/>
      <point x="274" y="549" type="line"/>
      <point x="271" y="549" type="line"/>
      <point x="271" y="770" type="line" smooth="yes"/>
      <point x="271" y="858"/>
      <point x="317" y="882"/>
      <point x="362" y="882" type="curve" smooth="yes"/>
      <point x="398" y="882"/>
      <point x="432" y="867"/>
      <point x="460" y="836" type="curve"/>
      <point x="486" y="941" type="line"/>
      <point x="449" y="964"/>
      <point x="405" y="972"/>
      <point x="365" y="972" type="curve" smooth="yes"/>
      <point x="258" y="972"/>
      <point x="169" y="903"/>
      <point x="169" y="772" type="curve" smooth="yes"/>
      <point x="169" y="550" type="line"/>
      <point x="166" y="550" type="line"/>
    </contour>
    <contour>
      <point x="30" y="510" type="line"/>
      <point x="420" y="510" type="line"/>
      <point x="420" y="600" type="line"/>
      <point x="30" y="600" type="line"/>
    </contour>
  </outline>
</glyph>
<glyph name="g" format="2">
  <advance width="760"/>
  <unicode hex="0067"/>
  <anchor x="381" y="-360" name="bottom"/>
  <anchor x="614" y="300" name="center"/>
  <anchor x="381" y="600" name="top"/>
  <outline>
    <contour>
      <point x="339" y="-312" type="curve" smooth="yes"/>
      <point x="510" y="-312"/>
      <point x="664" y="-197"/>
      <point x="664" y="0" type="curve" smooth="yes"/>
      <point x="664" y="600" type="line"/>
      <point x="564" y="600" type="line"/>
      <point x="564" y="450" type="line"/>
      <point x="602" y="475" type="line"/>
      <point x="549" y="555"/>
      <point x="458" y="608"/>
      <point x="353" y="608" type="curve" smooth="yes"/>
      <point x="188" y="608"/>
      <point x="54" y="470"/>
      <point x="54" y="300" type="curve" smooth="yes"/>
      <point x="54" y="130"/>
      <point x="188" y="-8"/>
      <point x="353" y="-8" type="curve" smooth="yes"/>
      <point x="458" y="-8"/>
      <point x="549" y="45"/>
      <point x="602" y="125" type="curve"/>
      <point x="564" y="147" type="line"/>
      <point x="564" y="6" type="line" smooth="yes"/>
      <point x="564" y="-122"/>
      <point x="472" y="-212"/>
      <point x="338" y="-212" type="curve" smooth="yes"/>
      <point x="251" y="-212"/>
      <point x="183" y="-173"/>
      <point x="143" y="-115" type="curve"/>
      <point x="113" y="-237" type="line"/>
      <point x="171" y="-284"/>
      <point x="247" y="-312"/>
    </contour>
    <contour>
      <point x="367" y="90" type="curve" smooth="yes"/>
      <point x="253" y="90"/>
      <point x="162" y="184"/>
      <point x="162" y="300" type="curve" smooth="yes"/>
      <point x="162" y="416"/>
      <point x="253" y="510"/>
      <point x="367" y="510" type="curve" smooth="yes"/>
      <point x="481" y="510"/>
      <point x="572" y="416"/>
      <point x="572" y="300" type="curve" smooth="yes"/>
      <point x="572" y="184"/>
      <point x="481" y="90"/>
    </contour>
  </outline>
</glyph>
<glyph name="o" format="2">
  <advance width="740"/>
  <unicode hex="006F"/>
  <anchor x="370" y="0" name="bottom"/>
  <anchor x="370" y="300" name="center"/>
  <anchor x="400" y="0" name="ogonek"/>
  <anchor x="370" y="600" name="top"/>
  <anchor x="530" y="600" name="topright"/>
  <outline>
    <contour>
      <point x="370" y="-12" type="curve" smooth="yes"/>
      <point x="545" y="-12"/>
      <point x="686" y="127"/>
      <point x="686" y="300" type="curve" smooth="yes"/>
      <point x="686" y="473"/>
      <point x="545" y="612"/>
      <point x="370" y="612" type="curve" smooth="yes"/>
      <point x="195" y="612"/>
      <point x="54" y="473"/>
      <point x="54" y="300" type="curve" smooth="yes"/>
      <point x="54" y="127"/>
      <point x="195" y="-12"/>
    </contour>
    <contour>
      <point x="370" y="90" type="curve" smooth="yes"/>
      <point x="254" y="90"/>
      <point x="162" y="184"/>
      <point x="162" y="300" type="curve" smooth="yes"/>
      <point x="162" y="416"/>
      <point x="254" y="510"/>
      <point x="370" y="510" type="curve" smooth="yes"/>
      <point x="485" y="510"/>
      <point x="578" y="416"/>
      <point x="578" y="300" type="curve" smooth="yes"/>
      <point x="578" y="184"/>
      <point x="485" y="90"/>
    </contour>
  </outline>
</glyph>
<glyph name="x" format="2">
  <advance width="600"/>
  <unicode hex="0078"/>
  <outline>
    <contour>
      <point x="24" y="0" type="line"/>
      <point x="148" y="0" type="line"/>
      <point x="230" y="131" type="line" smooth="yes"/>
      <point x="260" y="178"/>
      <point x="291" y="228"/>
      <point x="311" y="282" type="curve"/>
      <point x="285" y="282" type="line"/>
      <point x="305" y="228"/>
      <point x="336" y="178"/>
      <point x="366" y="131" type="curve" smooth="yes"/>
      <point x="448" y="0" type="line"/>
      <point x="576" y="0" type="line"/>
      <point x="365" y="318" type="line"/>
      <point x="553" y="600" type="line"/>
      <point x="429" y="600" type="line"/>
      <point x="372" y="508" type="line" smooth="yes"/>
      <point x="343" y="461"/>
      <point x="311" y="412"/>
      <point x="291" y="358" type="curve"/>
      <point x="311" y="358" type="line"/>
      <point x="291" y="412"/>
      <point x="260" y="462"/>
      <point x="231" y="508" type="curve" smooth="yes"/>
      <point x="173" y="600" type="line"/>
      <point x="47" y="600" type="line"/>
      <point x="235" y="318" type="line"/>
    </contour>
  </outline>
</glyph>
<glyph name="braceright" format="2">
  <advance width="480"/>
  <unicode hex="007D"/>
  <outline>
    <contour>
      <point x="70" y="-186" type="line"/>
      <point x="214" y="-186"/>
      <point x="337" y="-101"/>
      <point x="337" y="80" type="curve" smooth="yes"/>
      <point x="337" y="136"/>
      <point x="325" y="188"/>
      <point x="325" y="236" type="curve" smooth="yes"/>
      <point x="325" y="321"/>
      <point x="363" y="354"/>
      <point x="438" y="390" type="curve"/>
      <point x="363" y="426"/>
      <point x="325" y="459"/>
      <point x="325" y="544" type="curve" smooth="yes"/>
      <point x="325" y="592"/>
      <point x="337" y="644"/>
      <point x="337" y="700" type="curve" smooth="yes"/>
      <point x="337" y="881"/>
      <point x="214" y="966"/>
      <point x="70" y="966" type="curve"/>
      <point x="48" y="876" type="line"/>
      <point x="147" y="876"/>
      <point x="235" y="844"/>
      <point x="235" y="691" type="curve" smooth="yes"/>
      <point x="235" y="635"/>
      <point x="223" y="589"/>
      <point x="223" y="541" type="curve" smooth="yes"/>
      <point x="223" y="423"/>
      <point x="297" y="375"/>
      <point x="396" y="375" type="curve"/>
      <point x="396" y="405" type="line"/>
      <point x="297" y="405"/>
      <point x="223" y="357"/>
      <point x="223" y="239" type="curve" smooth="yes"/>
      <point x="223" y="191"/>
      <point x="235" y="145"/>
      <point x="235" y="89" type="curve" smooth="yes"/>
      <point x="235" y="-64"/>
      <point x="147" y="-96"/>
      <point x="48" y="-96" type="curve"/>
    </contour>
  </outline>
</glyph>
<glyph name="yen" format="2">
  <advance width="750"/>
  <unicode hex="00A5"/>
  <anchor x="53" y="900" name="topleft"/>
  <outline>
    <contour>
      <point x="318" y="0" type="line"/>
      <point x="432" y="0" type="line"/>
      <point x="432" y="435" type="line"/>
      <point x="702" y="900" type="line"/>
      <point x="582" y="900" type="line"/>
      <point x="433" y="638" type="line" smooth="yes"/>
      <point x="406" y="590"/>
      <point x="384" y="550"/>
      <point x="358" y="472" type="curve"/>
      <point x="402" y="471" type="line"/>
      <point x="377" y="549"/>
      <point x="354" y="591"/>
      <point x="328" y="638" type="curve" smooth="yes"/>
      <point x="180" y="900" type="line"/>
      <point x="48" y="900" type="line"/>
      <point x="318" y="435" type="line"/>
    </contour>
    <contour>
      <point x="90" y="318" type="line"/>
      <point x="660" y="318" type="line"/>
      <point x="660" y="402" type="line"/>
      <point x="90" y="402" type="line"/>
    </contour>
    <contour>
      <point x="90" y="498" type="line"/>
      <point x="660" y="498" type="line"/>
      <point x="660" y="582" type="line"/>
      <point x="451" y="582" type="line"/>
      <point x="385" y="491" type="line"/>
      <point x="303" y="582" type="line"/>
      <point x="90" y="582" type="line"/>
    </contour>
  </outline>
</glyph>
<glyph name="Eng" format="2">
  <advance width="990"/>
  <unicode hex="014A"/>
  <anchor x="495" y="0" name="bottom"/>
  <anchor x="495" y="900" name="top"/>
  <outline>
    <contour>
      <point x="626" y="-192" type="curve" smooth="yes"/>
      <point x="752" y="-192"/>
      <point x="864" y="-114"/>
      <point x="864" y="61" type="curve" smooth="yes"/>
      <point x="864" y="900" type="line"/>
      <point x="756" y="900" type="line"/>
      <point x="756" y="255" type="line"/>
      <point x="126" y="930" type="line"/>
      <point x="126" y="0" type="line"/>
      <point x="234" y="0" type="line"/>
      <point x="234" y="645" type="line"/>
      <point x="756" y="86" type="line"/>
      <point x="756" y="76" type="line" smooth="yes"/>
      <point x="756" y="-47"/>
      <point x="695" y="-90"/>
      <point x="625" y="-90" type="curve" smooth="yes"/>
      <point x="563" y="-90"/>
      <point x="513" y="-58"/>
      <point x="483" y="-6" type="curve"/>
      <point x="450" y="-126" type="line"/>
      <point x="495" y="-174"/>
      <point x="562" y="-192"/>
    </contour>
  </outline>
</glyph>
<glyph name="oe" format="2">
  <advance width="1210"/>
  <unicode hex="0153"/>
  <anchor x="605" y="0" name="bottom"/>
  <anchor x="605" y="600" name="top"/>
  <outline>
    <contour>
      <point x="370" y="-12" type="curve" smooth="yes"/>
      <point x="472" y="-12"/>
      <point x="563" y="35"/>
      <point x="621" y="109" type="curve"/>
      <point x="679" y="35"/>
      <point x="772" y="-12"/>
      <point x="882" y="-12" type="curve" smooth="yes"/>
      <point x="964" y="-12"/>
      <point x="1040" y="15"/>
      <point x="1098" y="62" type="curve"/>
      <point x="1068" y="185" type="line"/>
      <point x="1028" y="128"/>
      <point x="959" y="90"/>
      <point x="883" y="90" type="curve" smooth="yes"/>
      <point x="759" y="90"/>
      <point x="662" y="187"/>
      <point x="662" y="308" type="curve"/>
      <point x="656" y="308" type="line"/>
      <point x="656" y="418"/>
      <point x="746" y="516"/>
      <point x="859" y="516" type="curve" smooth="yes"/>
      <point x="967" y="516"/>
      <point x="1060" y="428"/>
      <point x="1060" y="314" type="curve"/>
      <point x="1082" y="351" type="line"/>
      <point x="1044" y="357"/>
      <point x="1007" y="360"/>
      <point x="969" y="360" type="curve" smooth="yes"/>
      <point x="770" y="360" type="line" smooth="yes"/>
      <point x="713" y="360"/>
      <point x="655" y="352"/>
      <point x="598" y="340" type="curve"/>
      <point x="598" y="290" type="line"/>
      <point x="655" y="278"/>
      <point x="713" y="270"/>
      <point x="770" y="270" type="curve" smooth="yes"/>
      <point x="1162" y="270" type="line"/>
      <point x="1162" y="314" type="line" smooth="yes"/>
      <point x="1162" y="483"/>
      <point x="1025" y="612"/>
      <point x="859" y="612" type="curve" smooth="yes"/>
      <point x="761" y="612"/>
      <point x="674" y="566"/>
      <point x="618" y="494" type="curve"/>
      <point x="560" y="566"/>
      <point x="471" y="612"/>
      <point x="370" y="612" type="curve" smooth="yes"/>
      <point x="195" y="612"/>
      <point x="54" y="473"/>
      <point x="54" y="300" type="curve" smooth="yes"/>
      <point x="54" y="127"/>
      <point x="195" y="-12"/>
    </contour>
    <contour>
      <point x="370" y="90" type="curve" smooth="yes"/>
      <point x="254" y="90"/>
      <point x="162" y="184"/>
      <point x="162" y="300" type="curve" smooth="yes"/>
      <point x="162" y="416"/>
      <point x="254" y="510"/>
      <point x="370" y="510" type="curve" smooth="yes"/>
      <point x="485" y="510"/>
      <point x="578" y="416"/>
      <point x="578" y="300" type="curve" smooth="yes"/>
      <point x="578" y="184"/>
      <point x="485" y="90"/>
    </contour>
  </outline>
</glyph>
<glyph name="Ezh" format="2">
  <advance width="660"/>
  <unicode hex="01B7"/>
  <anchor x="302" y="0" name="bottom"/>
  <anchor x="313" y="900" name="top"/>
  <outline>
    <contour>
      <point x="302" y="-12" type="curve" smooth="yes"/>
      <point x="476" y="-12"/>
      <point x="618" y="125"/>
      <point x="618" y="300" type="curve" smooth="yes"/>
      <point x="618" y="465"/>
      <point x="491" y="588"/>
      <point x="340" y="602" type="curve"/>
      <point x="352" y="540" type="line"/>
      <point x="545" y="900" type="line"/>
      <point x="84" y="900" type="line"/>
      <point x="84" y="798" type="line"/>
      <point x="424" y="798" type="line"/>
      <point x="397" y="844" type="line"/>
      <point x="181" y="427" type="line"/>
      <point x="180" y="462" type="line"/>
      <point x="210" y="486"/>
      <point x="253" y="504"/>
      <point x="302" y="504" type="curve" smooth="yes"/>
      <point x="414" y="504"/>
      <point x="504" y="412"/>
      <point x="504" y="300" type="curve" smooth="yes"/>
      <point x="504" y="187"/>
      <point x="415" y="96"/>
      <point x="302" y="96" type="curve" smooth="yes"/>
      <point x="186" y="96"/>
      <point x="92" y="191"/>
      <point x="96" y="312" type="curve"/>
      <point x="118" y="315" type="line"/>
      <point x="6" y="92" type="line"/>
      <point x="16" y="169" type="line"/>
      <point x="66" y="58"/>
      <point x="175" y="-12"/>
    </contour>
  </outline>
</glyph>
<glyph name="commaturnedabovecomb" format="2">
  <unicode hex="0312"/>
  <anchor x="360" y="600" name="_top"/>
  <outline>
    <contour>
      <point x="308" y="720" type="curve"/>
      <point x="412" y="720" type="line"/>
      <point x="419" y="805"/>
      <point x="453" y="874"/>
      <point x="498" y="930" type="curve"/>
      <point x="382" y="930" type="line"/>
      <point x="342" y="868"/>
      <point x="314" y="798"/>
    </contour>
  </outline>
</glyph>
<glyph name="cedillacomb" format="2">
  <unicode hex="0327"/>
  <anchor x="432" y="0" name="_bottom"/>
  <anchor x="272" y="-180" name="bottom"/>
  <outline>
    <contour>
      <point x="200" y="-180" type="line"/>
      <point x="343" y="-180" type="line"/>
      <point x="486" y="0" type="line"/>
      <point x="378" y="0" type="line"/>
    </contour>
  </outline>
</glyph>
<glyph name="commercialMinusSign" format="2">
  <advance width="750"/>
  <unicode hex="2052"/>
  <outline>
    <contour>
      <point x="196" y="0" type="line"/>
      <point x="650" y="900" type="line"/>
      <point x="554" y="900" type="line"/>
      <point x="100" y="0" type="line"/>
    </contour>
    <contour>
      <point x="165" y="561" type="curve" smooth="yes"/>
      <point x="222" y="561"/>
      <point x="264" y="604"/>
      <point x="264" y="660" type="curve" smooth="yes"/>
      <point x="264" y="716"/>
      <point x="222" y="759"/>
      <point x="165" y="759" type="curve" smooth="yes"/>
      <point x="109" y="759"/>
      <point x="66" y="716"/>
      <point x="66" y="660" type="curve" smooth="yes"/>
      <point x="66" y="604"/>
      <point x="109" y="561"/>
    </contour>
    <contour>
      <point x="585" y="141" type="curve" smooth="yes"/>
      <point x="642" y="141"/>
      <point x="684" y="184"/>
      <point x="684" y="240" type="curve" smooth="yes"/>
      <point x="684" y="296"/>
      <point x="642" y="339"/>
      <point x="585" y="339" type="curve" smooth="yes"/>
      <point x="529" y="339"/>
      <point x="486" y="296"/>
      <point x="486" y="240" type="curve" smooth="yes"/>
      <point x="486" y="184"/>
      <point x="529" y="141"/>
    </contour>
  </outline>
</glyph>
<glyph name="dek" format="2">
  <advance width="750"/>
  <unicode hex="218A"/>
  <outline>
    <contour>
      <point x="383" y="-12" type="curve" smooth="yes"/>
      <point x="529" y="-12"/>
      <point x="649" y="100"/>
      <point x="649" y="245" type="curve" smooth="yes"/>
      <point x="649" y="287"/>
      <point x="638" y="326"/>
      <point x="617" y="366" type="curve"/>
      <point x="480" y="366" type="line"/>
      <point x="521" y="333"/>
      <point x="541" y="291"/>
      <point x="541" y="245" type="curve" smooth="yes"/>
      <point x="541" y="159"/>
      <point x="472" y="90"/>
      <point x="384" y="90" type="curve" smooth="yes"/>
      <point x="296" y="90"/>
      <point x="226" y="159"/>
      <point x="226" y="245" type="curve" smooth="yes"/>
      <point x="226" y="277"/>
      <point x="237" y="313"/>
      <point x="270" y="363" type="curve" smooth="yes"/>
      <point x="631" y="900" type="line"/>
      <point x="101" y="900" type="line"/>
      <point x="101" y="798" type="line"/>
      <point x="474" y="798" type="line"/>
      <point x="473" y="845" type="line"/>
      <point x="181" y="421" type="line" smooth="yes"/>
      <point x="135" y="354"/>
      <point x="118" y="302"/>
      <point x="118" y="245" type="curve" smooth="yes"/>
      <point x="118" y="100"/>
      <point x="238" y="-12"/>
    </contour>
  </outline>
</glyph>
<glyph name="el" format="2">
  <advance width="750"/>
  <unicode hex="218B"/>
  <outline>
    <contour>
      <point x="147" y="0" type="line"/>
      <point x="649" y="0" type="line"/>
      <point x="649" y="102" type="line"/>
      <point x="263" y="102" type="line"/>
      <point x="290" y="57" type="line"/>
      <point x="501" y="461" type="line"/>
      <point x="477" y="451"/>
      <point x="449" y="446"/>
      <point x="419" y="446" type="curve" smooth="yes"/>
      <point x="318" y="446"/>
      <point x="238" y="526"/>
      <point x="238" y="628" type="curve" smooth="yes"/>
      <point x="238" y="730"/>
      <point x="318" y="810"/>
      <point x="419" y="810" type="curve" smooth="yes"/>
      <point x="506" y="810"/>
      <point x="584" y="750"/>
      <point x="603" y="663" type="curve"/>
      <point x="666" y="784" type="line"/>
      <point x="610" y="866"/>
      <point x="519" y="912"/>
      <point x="422" y="912" type="curve" smooth="yes"/>
      <point x="261" y="912"/>
      <point x="130" y="788"/>
      <point x="130" y="627" type="curve" smooth="yes"/>
      <point x="130" y="484"/>
      <point x="239" y="367"/>
      <point x="374" y="355" type="curve"/>
      <point x="364" y="405" type="line"/>
    </contour>
  </outline>
</glyph>
<glyph name="notequal" format="2">
  <advance width="750"/>
  <unicode hex="2260"/>
  <outline>
    <contour>
      <point x="183" y="150" type="line"/>
      <point x="275" y="150" type="line"/>
      <point x="567" y="750" type="line"/>
      <point x="475" y="750" type="line"/>
    </contour>
    <contour>
      <point x="90" y="291" type="line"/>
      <point x="660" y="291" type="line"/>
      <point x="660" y="381" type="line"/>
      <point x="90" y="381" type="line"/>
    </contour>
    <contour>
      <point x="90" y="519" type="line"/>
      <point x="660" y="519" type="line"/>
      <point x="660" y="609" type="line"/>
      <point x="90" y="609" type="line"/>
    </contour>
  </outline>
</glyph>
<glyph name="J.ss02" format="2">
  <advance width="600"/>
  <anchor x="300" y="0" name="bottom"/>
  <anchor x="302" y="900" name="top"/>
  <outline>
    <contour>
      <point x="111" y="804" type="line"/>
      <point x="492" y="804" type="line"/>
      <point x="492" y="900" type="line"/>
      <point x="111" y="900" type="line"/>
    </contour>
    <contour>
      <point x="213" y="-12" type="curve" smooth="yes"/>
      <point x="361" y="-12"/>
      <point x="492" y="79"/>
      <point x="492" y="284" type="curve" smooth="yes"/>
      <point x="492" y="900" type="line"/>
      <point x="378" y="900" type="line"/>
      <point x="378" y="292" type="line" smooth="yes"/>
      <point x="378" y="143"/>
      <point x="304" y="90"/>
      <point x="218" y="90" type="curve" smooth="yes"/>
      <point x="142" y="90"/>
      <point x="81" y="129"/>
      <point x="45" y="192" type="curve"/>
      <point x="12" y="64" type="line"/>
      <point x="63" y="9"/>
      <point x="140" y="-12"/>
    </contour>
  </outline>
</glyph>
<glyph name=".notdef" format="2">
  <advance width="720"/>
  <outline>
    <contour>
      <point x="96" y="-360" type="line"/>
      <point x="624" y="-360" type="line"/>
      <point x="624" y="960" type="line"/>
      <point x="96" y="960" type="line"/>
    </contour>
  </outline>
</glyph>
<glyph name="seven.numr" format="2">
  <advance width="480"/>
  <outline>
    <contour>
      <point x="102" y="420" type="line"/>
      <point x="198" y="420" type="line"/>
      <point x="435" y="900" type="line"/>
      <point x="86" y="900" type="line"/>
      <point x="86" y="820" type="line"/>
      <point x="331" y="820" type="line"/>
      <point x="322" y="860" type="line"/>
    </contour>
  </outline>
</glyph>
<glyph name="slash.titl" format="2">
  <advance width="480"/>
  <outline>
    <contour>
      <point x="-60" y="-180" type="line"/>
      <point x="0" y="-180" type="line"/>
      <point x="540" y="960" type="line"/>
      <point x="480" y="960" type="line"/>
    </contour>
  </outline>
</glyph>
<glyph name="two.numr" format="2">
  <advance width="480"/>
  <outline>
    <contour>
      <point x="70" y="420" type="line"/>
      <point x="414" y="420" type="line"/>
      <point x="414" y="500" type="line"/>
      <point x="300" y="500" type="line"/>
      <point x="261" y="500"/>
      <point x="231" y="497"/>
      <point x="174" y="494" type="curve"/>
      <point x="185" y="456" type="line"/>
      <point x="237" y="515"/>
      <point x="285" y="575"/>
      <point x="331" y="634" type="curve" smooth="yes"/>
      <point x="370" y="684"/>
      <point x="386" y="720"/>
      <point x="386" y="759" type="curve" smooth="yes"/>
      <point x="386" y="844"/>
      <point x="317" y="912"/>
      <point x="227" y="912" type="curve" smooth="yes"/>
      <point x="136" y="912"/>
      <point x="66" y="846"/>
      <point x="66" y="758" type="curve" smooth="yes"/>
      <point x="66" y="739"/>
      <point x="70" y="720"/>
      <point x="79" y="702" type="curve"/>
      <point x="171" y="702" type="line"/>
      <point x="157" y="720"/>
      <point x="152" y="738"/>
      <point x="152" y="757" type="curve" smooth="yes"/>
      <point x="152" y="803"/>
      <point x="183" y="832"/>
      <point x="226" y="832" type="curve" smooth="yes"/>
      <point x="271" y="832"/>
      <point x="300" y="800"/>
      <point x="300" y="761" type="curve" smooth="yes"/>
      <point x="300" y="739"/>
      <point x="295" y="718"/>
      <point x="268" y="682" type="curve" smooth="yes"/>
    </contour>
  </outline>
</glyph>
<glyph name="zero.lf" format="2">
  <advance width="750"/>
  <outline>
    <contour>
      <point x="375" y="-12" type="curve" smooth="yes"/>
      <point x="586" y="-12"/>
      <point x="690" y="223"/>
      <point x="690" y="450" type="curve" smooth="yes"/>
      <point x="690" y="677"/>
      <point x="586" y="912"/>
      <point x="375" y="912" type="curve" smooth="yes"/>
      <point x="164" y="912"/>
      <point x="60" y="677"/>
      <point x="60" y="450" type="curve" smooth="yes"/>
      <point x="60" y="223"/>
      <point x="164" y="-12"/>
    </contour>
    <contour>
      <point x="375" y="90" type="curve" smooth="yes"/>
      <point x="235" y="90"/>
      <point x="174" y="282"/>
      <point x="174" y="450" type="curve" smooth="yes"/>
      <point x="174" y="618"/>
      <point x="235" y="810"/>
      <point x="375" y="810" type="curve" smooth="yes"/>
      <point x="515" y="810"/>
      <point x="576" y="618"/>
      <point x="576" y="450" type="curve" smooth="yes"/>
      <point x="576" y="282"/>
      <point x="515" y="90"/>
    </contour>
  </outline>
</glyph>
